<svg xmlns="http://www.w3.org/2000/svg" viewBox="0 0 30 25.331">
  <defs>
    <style>
      .cls-1 {
        fill: #12653d;
      }
    </style>
  </defs>
  <g id="ico" transform="translate(212.945 78.49) rotate(180)">
    <path id="union" class="cls-1" d="M11.886,24.982.935,14.08a1,1,0,0,1-.869-.991v-.023a1.25,1.25,0,0,1,0-.8,1,1,0,0,1,.806-.951L11.886.349a1.2,1.2,0,0,1,1.694,0l.291.29a1.187,1.187,0,0,1,0,1.686L4.859,11.3H29a1,1,0,0,1,1,1v.794a1,1,0,0,1-1,1H4.912l8.959,8.918a1.187,1.187,0,0,1,0,1.686l-.291.29a1.2,1.2,0,0,1-1.694,0Z" transform="translate(182.945 53.159)"/>
  </g>
</svg>
