<svg xmlns="http://www.w3.org/2000/svg" viewBox="0 0 387.73 132.46"><defs><style>.cls-1{fill:#222;}.cls-2{fill:#0f663c;}.cls-3{fill:#c69c5f;}</style></defs><title>Varlık 3</title><g id="katman_2" data-name="katman 2"><g id="katman_1-2" data-name="katman 1"><path class="cls-1" d="M13.84,32.71H29.73v9.76H4V.75h9.82Z"/><path class="cls-1" d="M75.2,21.58A21.58,21.58,0,1,1,53.62,0,21.62,21.62,0,0,1,75.2,21.58Zm-9.76,0A11.82,11.82,0,1,0,53.62,33.4,11.8,11.8,0,0,0,65.44,21.58Z"/><path class="cls-1" d="M108.6,30l6.88,6.94A21.58,21.58,0,1,1,100.22.06a21.34,21.34,0,0,1,15.26,6.32l-6.88,6.88a11.83,11.83,0,1,0-8.38,20.2A11.65,11.65,0,0,0,108.6,30Z"/><path class="cls-1" d="M162.52,21.58A21.58,21.58,0,1,1,140.94,0,21.62,21.62,0,0,1,162.52,21.58Zm-9.76,0A11.82,11.82,0,1,0,140.94,33.4,11.8,11.8,0,0,0,152.76,21.58Z"/><path class="cls-1" d="M208.56.75l6.69,41.72h-8.88L201.8,17.2l-8.06,25.27h-8.26L177.29,17.2l-4.44,25.27H163.9L170.53.75h11.2l7.44,25.33L197.36.75Z"/><path class="cls-1" d="M260.54,21.58A21.58,21.58,0,1,1,239,0,21.63,21.63,0,0,1,260.54,21.58Zm-9.76,0A11.82,11.82,0,1,0,239,33.4,11.8,11.8,0,0,0,250.78,21.58Z"/><path class="cls-1" d="M291.44.75v9.82H279.31v31.9h-9.82V10.57H257.35V.75Z"/><path class="cls-1" d="M306.46,42.47H296.7V.75h9.76Z"/><path class="cls-1" d="M331.35,30,341.92.75h10.45L337.23,42.47H325.41L310.33.75h10.39Z"/><path class="cls-1" d="M365.44,10.57V16.7H379.7v9.82H365.44v6.19H383.7v9.76H355.62V.75H383.7v9.82Z"/><path class="cls-2" d="M54.93,108.15l12.62,12.73a39.57,39.57,0,1,1-28-67.55,39.17,39.17,0,0,1,28,11.58L54.93,77.53a21.7,21.7,0,1,0-15.36,37A21.39,21.39,0,0,0,54.93,108.15Z"/><path class="cls-2" d="M153.79,92.78a39.57,39.57,0,1,1-39.57-39.57A39.65,39.65,0,0,1,153.79,92.78Zm-17.89,0a21.68,21.68,0,1,0-21.68,21.67A21.67,21.67,0,0,0,135.9,92.78Z"/><path class="cls-2" d="M180,74.31V95.07H161.92V74.31Zm0,36v20.75H161.92V110.33Z"/><path class="cls-3" d="M209.4,113.19h29.13v17.89H191.4V54.59h18Z"/><path class="cls-3" d="M296,121.79H264l-3.44,9.29h-19l27.64-76.49h21.67l27.76,76.49H299.42Zm-25.46-18h19L280,77.41Z"/><path class="cls-3" d="M387.73,108.72a22.42,22.42,0,0,1-22.48,22.36H325.8V54.59h35.78a22.42,22.42,0,0,1,22.36,22.48,22.91,22.91,0,0,1-4.82,14A22.59,22.59,0,0,1,387.73,108.72ZM343.8,84.64H360a6.12,6.12,0,0,0,6.08-6.08,6,6,0,0,0-6.08-6H343.8Zm25.92,22.47a6.11,6.11,0,0,0-6.08-6.07H343.8v12.15h19.84A6.12,6.12,0,0,0,369.72,107.11Z"/></g></g></svg>